<?xml version="1.0" encoding="utf-8"?>
<!-- Generator: Adobe Illustrator 23.0.5, SVG Export Plug-In . SVG Version: 6.00 Build 0)  -->
<svg version="1.1" id="Layer_1" xmlns="http://www.w3.org/2000/svg" xmlns:xlink="http://www.w3.org/1999/xlink" x="0px" y="0px"
	 viewBox="0 0 84.3 109.9" style="enable-background:new 0 0 84.3 109.9;" xml:space="preserve">
<style type="text/css">
	.st0{fill-rule:evenodd;clip-rule:evenodd;fill:#a63437;}
</style>
<g>
	<path class="st0" d="M23.7,32c-10,0-18.2,8.2-18.2,18.2v36.5c0,10.1,8.2,18.2,18.2,18.2h32.9V90.4H20.1V46.6h36.5V32H23.7z"/>
	<path class="st0" d="M78.4,90.3H63.9V21H20.1V6.5h40.1c10.1,0,18.2,8.2,18.2,18.2V90.3z"/>
	<path class="st0" d="M28.1,68.5c0-7.7,6.2-13.9,13.9-13.9s13.9,6.2,13.9,13.9S49.7,82.4,42,82.4C34.3,82.3,28.1,76.1,28.1,68.5z"/>
</g>
</svg>
