<svg xmlns="http://www.w3.org/2000/svg" viewBox="0 0 640 360" width="640" height="360">
  <title>Uncertainty quantification</title>
  <defs>
    <linearGradient id="uq-bg" x1="0" y1="0" x2="0" y2="1">
      <stop offset="0%" stop-color="#E7F6F5"/>
      <stop offset="100%" stop-color="#F5F4F9"/>
    </linearGradient>
  </defs>
  <!-- Background -->
  <rect width="640" height="360" fill="url(#uq-bg)"/>

  <!-- ===================== PLOT AXES (faint navy) ===================== -->
  <g stroke="#2B3062" fill="none" opacity="0.32">
    <!-- y-axis & x-axis -->
    <line x1="60" y1="56" x2="60" y2="272" stroke-width="1.3"/>
    <line x1="60" y1="272" x2="606" y2="272" stroke-width="1.3"/>
    <!-- axis direction arrow tips -->
    <polyline points="56,64 60,56 64,64" stroke-width="1.3" stroke-linecap="round" stroke-linejoin="round"/>
    <polyline points="598,268 606,272 598,276" stroke-width="1.3" stroke-linecap="round" stroke-linejoin="round"/>
  </g>
  <g stroke="#2B3062" fill="none" opacity="0.28" stroke-width="1">
    <!-- ticks -->
    <line x1="140" y1="272" x2="140" y2="277"/>
    <line x1="220" y1="272" x2="220" y2="277"/>
    <line x1="300" y1="272" x2="300" y2="277"/>
    <line x1="380" y1="272" x2="380" y2="277"/>
    <line x1="460" y1="272" x2="460" y2="277"/>
    <line x1="540" y1="272" x2="540" y2="277"/>
    <line x1="55" y1="80" x2="60" y2="80"/>
    <line x1="55" y1="125" x2="60" y2="125"/>
    <line x1="55" y1="170" x2="60" y2="170"/>
    <line x1="55" y1="215" x2="60" y2="215"/>
    <line x1="55" y1="260" x2="60" y2="260"/>
  </g>

  <!-- ===================== UNCERTAINTY ENVELOPE (hero) ===================== -->
  <!-- +/-2 sigma (95%) outer band -->
  <polygon points="60.0,184.9 66.0,185.0 72.0,185.0 78.0,185.0 84.0,185.0 90.0,184.8 96.0,184.7 102.0,184.4 108.0,184.1 114.0,183.7 120.0,183.2 126.0,182.7 132.0,182.1 138.0,181.4 144.0,180.7 150.0,179.8 156.0,178.9 162.0,178.0 168.0,176.9 174.0,175.8 180.0,174.6 186.0,173.3 192.0,171.9 198.0,170.5 204.0,169.0 210.0,167.4 216.0,165.8 222.0,164.0 228.0,162.2 234.0,160.4 240.0,158.5 246.0,156.5 252.0,154.5 258.0,152.4 264.0,150.2 270.0,148.0 276.0,145.8 282.0,143.5 288.0,141.2 294.0,138.9 300.0,136.5 306.0,134.1 312.0,131.7 318.0,129.2 324.0,126.8 330.0,124.3 336.0,121.8 342.0,119.4 348.0,116.9 354.0,114.4 360.0,112.0 366.0,109.6 372.0,107.1 378.0,104.8 384.0,102.4 390.0,100.1 396.0,97.8 402.0,95.5 408.0,93.3 414.0,91.2 420.0,89.1 426.0,87.0 432.0,85.0 438.0,83.1 444.0,81.2 450.0,79.4 456.0,77.6 462.0,76.0 468.0,74.3 474.0,72.8 480.0,71.3 486.0,69.9 492.0,68.6 498.0,67.3 504.0,66.1 510.0,65.0 516.0,64.0 522.0,63.0 528.0,62.1 534.0,61.3 540.0,60.5 546.0,59.8 552.0,59.1 558.0,58.5 564.0,58.0 570.0,57.5 576.0,57.1 582.0,56.7 588.0,56.4 594.0,56.1 600.0,55.9 600.0,207.9 594.0,205.7 588.0,203.5 582.0,201.4 576.0,199.3 570.0,197.3 564.0,195.4 558.0,193.6 552.0,191.8 546.0,190.1 540.0,188.5 534.0,187.0 528.0,185.6 522.0,184.2 516.0,183.0 510.0,181.8 504.0,180.8 498.0,179.8 492.0,178.9 486.0,178.1 480.0,177.4 474.0,176.8 468.0,176.3 462.0,175.9 456.0,175.6 450.0,175.3 444.0,175.2 438.0,175.1 432.0,175.1 426.0,175.2 420.0,175.3 414.0,175.6 408.0,175.9 402.0,176.3 396.0,176.7 390.0,177.2 384.0,177.8 378.0,178.4 372.0,179.1 366.0,179.8 360.0,180.6 354.0,181.4 348.0,182.2 342.0,183.1 336.0,184.0 330.0,184.9 324.0,185.9 318.0,186.8 312.0,187.8 306.0,188.8 300.0,189.8 294.0,190.7 288.0,191.7 282.0,192.7 276.0,193.6 270.0,194.5 264.0,195.5 258.0,196.4 252.0,197.2 246.0,198.1 240.0,198.9 234.0,199.6 228.0,200.4 222.0,201.1 216.0,201.7 210.0,202.4 204.0,202.9 198.0,203.5 192.0,204.0 186.0,204.4 180.0,204.8 174.0,205.2 168.0,205.5 162.0,205.7 156.0,206.0 150.0,206.1 144.0,206.3 138.0,206.3 132.0,206.4 126.0,206.4 120.0,206.4 114.0,206.3 108.0,206.2 102.0,206.1 96.0,206.0 90.0,205.8 84.0,205.6 78.0,205.4 72.0,205.2 66.0,205.0 60.0,204.9" fill="#1CCFC0" stroke="none" opacity="0.10">
    <animate attributeName="opacity" values="0.10;0.15;0.10" dur="3.6s" repeatCount="indefinite"/>
  </polygon>
  <!-- +/-1 sigma inner band -->
  <polygon points="60.0,189.9 66.0,190.0 72.0,190.1 78.0,190.1 84.0,190.1 90.0,190.1 96.0,190.0 102.0,189.8 108.0,189.6 114.0,189.3 120.0,189.0 126.0,188.6 132.0,188.2 138.0,187.7 144.0,187.1 150.0,186.4 156.0,185.7 162.0,184.9 168.0,184.1 174.0,183.1 180.0,182.1 186.0,181.1 192.0,179.9 198.0,178.7 204.0,177.5 210.0,176.1 216.0,174.8 222.0,173.3 228.0,171.8 234.0,170.2 240.0,168.6 246.0,166.9 252.0,165.2 258.0,163.4 264.0,161.5 270.0,159.7 276.0,157.8 282.0,155.8 288.0,153.8 294.0,151.8 300.0,149.8 306.0,147.8 312.0,145.7 318.0,143.6 324.0,141.5 330.0,139.5 336.0,137.4 342.0,135.3 348.0,133.2 354.0,131.2 360.0,129.1 366.0,127.1 372.0,125.1 378.0,123.2 384.0,121.3 390.0,119.4 396.0,117.5 402.0,115.7 408.0,114.0 414.0,112.3 420.0,110.6 426.0,109.1 432.0,107.5 438.0,106.1 444.0,104.7 450.0,103.4 456.0,102.1 462.0,100.9 468.0,99.8 474.0,98.8 480.0,97.9 486.0,97.0 492.0,96.2 498.0,95.4 504.0,94.8 510.0,94.2 516.0,93.7 522.0,93.3 528.0,93.0 534.0,92.7 540.0,92.5 546.0,92.4 552.0,92.3 558.0,92.3 564.0,92.4 570.0,92.5 576.0,92.7 582.0,92.9 588.0,93.2 594.0,93.5 600.0,93.9 600.0,169.9 594.0,168.3 588.0,166.7 582.0,165.2 576.0,163.8 570.0,162.4 564.0,161.1 558.0,159.8 552.0,158.6 546.0,157.5 540.0,156.5 534.0,155.6 528.0,154.7 522.0,153.9 516.0,153.2 510.0,152.6 504.0,152.1 498.0,151.7 492.0,151.3 486.0,151.1 480.0,150.9 474.0,150.8 468.0,150.8 462.0,150.9 456.0,151.1 450.0,151.3 444.0,151.7 438.0,152.1 432.0,152.6 426.0,153.1 420.0,153.8 414.0,154.5 408.0,155.3 402.0,156.1 396.0,157.0 390.0,157.9 384.0,158.9 378.0,160.0 372.0,161.1 366.0,162.3 360.0,163.4 354.0,164.7 348.0,165.9 342.0,167.2 336.0,168.5 330.0,169.8 324.0,171.1 318.0,172.4 312.0,173.8 306.0,175.1 300.0,176.4 294.0,177.8 288.0,179.1 282.0,180.4 276.0,181.7 270.0,182.9 264.0,184.2 258.0,185.4 252.0,186.5 246.0,187.7 240.0,188.8 234.0,189.8 228.0,190.8 222.0,191.8 216.0,192.7 210.0,193.6 204.0,194.5 198.0,195.2 192.0,196.0 186.0,196.6 180.0,197.3 174.0,197.8 168.0,198.3 162.0,198.8 156.0,199.2 150.0,199.6 144.0,199.9 138.0,200.1 132.0,200.3 126.0,200.5 120.0,200.6 114.0,200.7 108.0,200.7 102.0,200.7 96.0,200.6 90.0,200.6 84.0,200.5 78.0,200.3 72.0,200.2 66.0,200.0 60.0,199.9" fill="#0E988C" stroke="none" opacity="0.16">
    <animate attributeName="opacity" values="0.16;0.22;0.16" dur="3.6s" begin="-1.8s" repeatCount="indefinite"/>
  </polygon>

  <!-- ===================== PREDICTION CURVE (teal) ===================== -->
  <path d="M 60.0,194.9 L 66.0,195.0 L 72.0,195.1 L 78.0,195.2 L 84.0,195.3 L 90.0,195.3 L 96.0,195.3 L 102.0,195.3 L 108.0,195.2 L 114.0,195.0 L 120.0,194.8 L 126.0,194.6 L 132.0,194.2 L 138.0,193.9 L 144.0,193.5 L 150.0,193.0 L 156.0,192.4 L 162.0,191.9 L 168.0,191.2 L 174.0,190.5 L 180.0,189.7 L 186.0,188.9 L 192.0,188.0 L 198.0,187.0 L 204.0,186.0 L 210.0,184.9 L 216.0,183.8 L 222.0,182.6 L 228.0,181.3 L 234.0,180.0 L 240.0,178.7 L 246.0,177.3 L 252.0,175.8 L 258.0,174.4 L 264.0,172.8 L 270.0,171.3 L 276.0,169.7 L 282.0,168.1 L 288.0,166.5 L 294.0,164.8 L 300.0,163.1 L 306.0,161.4 L 312.0,159.7 L 318.0,158.0 L 324.0,156.3 L 330.0,154.6 L 336.0,152.9 L 342.0,151.2 L 348.0,149.6 L 354.0,147.9 L 360.0,146.3 L 366.0,144.7 L 372.0,143.1 L 378.0,141.6 L 384.0,140.1 L 390.0,138.7 L 396.0,137.3 L 402.0,135.9 L 408.0,134.6 L 414.0,133.4 L 420.0,132.2 L 426.0,131.1 L 432.0,130.1 L 438.0,129.1 L 444.0,128.2 L 450.0,127.4 L 456.0,126.6 L 462.0,125.9 L 468.0,125.3 L 474.0,124.8 L 480.0,124.4 L 486.0,124.0 L 492.0,123.8 L 498.0,123.6 L 504.0,123.5 L 510.0,123.4 L 516.0,123.5 L 522.0,123.6 L 528.0,123.8 L 534.0,124.1 L 540.0,124.5 L 546.0,124.9 L 552.0,125.5 L 558.0,126.1 L 564.0,126.7 L 570.0,127.4 L 576.0,128.2 L 582.0,129.0 L 588.0,129.9 L 594.0,130.9 L 600.0,131.9" fill="none" stroke="#0E988C" stroke-width="2.5" stroke-linecap="round" stroke-linejoin="round"/>

  <!-- ===================== MEASURED DATA + ERROR BARS ===================== -->
  <g stroke="#0E988C" stroke-width="1.4" stroke-linecap="round" opacity="0.85">
    <line x1="96" y1="194.3" x2="96" y2="214.3"/>
    <line x1="93" y1="194.3" x2="99" y2="194.3"/>
    <line x1="93" y1="214.3" x2="99" y2="214.3"/>
    <line x1="150" y1="170.0" x2="150" y2="192.0"/>
    <line x1="147" y1="170.0" x2="153" y2="170.0"/>
    <line x1="147" y1="192.0" x2="153" y2="192.0"/>
    <line x1="205" y1="189.8" x2="205" y2="207.8"/>
    <line x1="202" y1="189.8" x2="208" y2="189.8"/>
    <line x1="202" y1="207.8" x2="208" y2="207.8"/>
    <line x1="258" y1="154.4" x2="258" y2="174.4"/>
    <line x1="255" y1="154.4" x2="261" y2="154.4"/>
    <line x1="255" y1="174.4" x2="261" y2="174.4"/>
    <line x1="312" y1="160.7" x2="312" y2="182.7"/>
    <line x1="309" y1="160.7" x2="315" y2="160.7"/>
    <line x1="309" y1="182.7" x2="315" y2="182.7"/>
    <line x1="360" y1="126.3" x2="360" y2="144.3"/>
    <line x1="357" y1="126.3" x2="363" y2="126.3"/>
    <line x1="357" y1="144.3" x2="363" y2="144.3"/>
  </g>
  <g fill="#0F112A">
    <circle cx="96" cy="204.3" r="3.6"/>
    <circle cx="150" cy="181.0" r="3.6"/>
    <circle cx="205" cy="198.8" r="3.6"/>
    <circle cx="258" cy="164.4" r="3.6"/>
    <circle cx="312" cy="171.7" r="3.6"/>
    <circle cx="360" cy="135.3" r="3.6"/>
  </g>

  <!-- ===================== ORANGE FOCAL PREDICTION POINT ===================== -->
  <!-- drop-line from queried point down to the x-axis -->
  <line x1="516" y1="123.5" x2="516" y2="272" stroke="#ED481C" stroke-width="1.2" stroke-dasharray="3 4" opacity="0.7">
    <animate attributeName="stroke-dashoffset" values="0;-14" dur="1.1s" repeatCount="indefinite"/>
  </line>
  <circle cx="516" cy="123.5" r="5" fill="#ED481C">
    <animate attributeName="r" values="5;6.4;5" dur="2.4s" repeatCount="indefinite"/>
  </circle>
  <circle cx="516" cy="272" r="2.4" fill="#ED481C" opacity="0.8"/>

  <!-- ===================== PREDICTIVE DISTRIBUTION (sideways Gaussian) ===================== -->
  <!-- vertical slice (bell baseline) at the band's right edge -->
  <line x1="600" y1="52.1" x2="600" y2="211.7" stroke="#0E988C" stroke-width="1.2" opacity="0.45"/>
  <path d="M603.3,52.1 L603.8,54.7 L604.4,57.4 L605.0,60.1 L605.7,62.7 L606.5,65.4 L607.3,68.0 L608.2,70.7 L609.2,73.4 L610.2,76.0 L611.3,78.7 L612.4,81.3 L613.6,84.0 L614.8,86.7 L616.0,89.3 L617.3,92.0 L618.6,94.6 L619.8,97.3 L621.1,100.0 L622.3,102.6 L623.5,105.3 L624.6,107.9 L625.6,110.6 L626.6,113.3 L627.5,115.9 L628.2,118.6 L628.8,121.2 L629.3,123.9 L629.7,126.6 L629.9,129.2 L630.0,131.9 L629.9,134.5 L629.7,137.2 L629.3,139.9 L628.8,142.5 L628.2,145.2 L627.5,147.8 L626.6,150.5 L625.6,153.2 L624.6,155.8 L623.5,158.5 L622.3,161.1 L621.1,163.8 L619.8,166.5 L618.6,169.1 L617.3,171.8 L616.0,174.4 L614.8,177.1 L613.6,179.8 L612.4,182.4 L611.3,185.1 L610.2,187.7 L609.2,190.4 L608.2,193.1 L607.3,195.7 L606.5,198.4 L605.7,201.0 L605.0,203.7 L604.4,206.4 L603.8,209.0 L603.3,211.7" fill="#0E988C" fill-opacity="0.10" stroke="#0E988C" stroke-width="1.8" stroke-linejoin="round" stroke-linecap="round">
    <animate attributeName="fill-opacity" values="0.10;0.18;0.10" dur="3.6s" repeatCount="indefinite"/>
  </path>
  <!-- mean tick on the distribution -->
  <line x1="600" y1="131.9" x2="630.0" y2="131.9" stroke="#0E988C" stroke-width="1" opacity="0.5"/>
  <!-- micro label -->
  <text x="628.0" y="46.1" font-family="ui-monospace, monospace" font-size="11" font-weight="700" fill="#0F112A" text-anchor="end" opacity="0.7">95%</text>
  <text x="628.0" y="224.7" font-family="ui-monospace, monospace" font-size="10" fill="#0E988C" text-anchor="end" opacity="0.75">&#177;&#963;</text>

  <!-- Label band -->
  <rect x="0" y="300" width="640" height="60" fill="#0F112A" opacity="0.06"/>
  <text x="32" y="336" font-family="ui-monospace, monospace" font-size="16" font-weight="700" fill="#0F112A" letter-spacing="0.5">Uncertainty quantification</text>
  <text x="32" y="354" font-family="ui-monospace, monospace" font-size="10" fill="#0E988C" letter-spacing="1" opacity="0.8">GATE RCM &#183; Application</text>

  <!-- Corner bracket decorations -->
  <g stroke="#0E988C" stroke-width="2" fill="none" stroke-linecap="round">
    <polyline points="12,12 12,28 28,28"/>
    <polyline points="628,12 628,28 612,28"/>
  </g>
</svg>
